<?xml version="1.0" standalone="no"?>
<!DOCTYPE svg PUBLIC "-//W3C//DTD SVG 20010904//EN"
 "http://www.w3.org/TR/2001/REC-SVG-20010904/DTD/svg10.dtd">
<svg version="1.0" xmlns="http://www.w3.org/2000/svg"
 width="114.000000pt" height="105.000000pt" viewBox="0 0 114.000000 105.000000"
 preserveAspectRatio="xMidYMid meet">
<metadata>
Created by potrace 1.16, written by Peter Selinger 2001-2019
</metadata>
<g transform="translate(0.000000,105.000000) scale(0.100000,-0.100000)"
fill="#000000" stroke="none">
<path d="M440 911 c-93 -30 -172 -97 -217 -183 -25 -48 -28 -63 -28 -153 0
-95 2 -103 34 -163 39 -71 78 -110 154 -150 47 -24 62 -27 152 -27 95 0 103 2
163 34 67 36 114 86 153 161 20 38 24 60 24 140 0 82 -4 103 -26 151 -33 70
-91 130 -161 165 -43 22 -69 28 -138 30 -47 2 -96 0 -110 -5z"/>
<path d="M905 350 c-41 -45 -10 -120 50 -120 38 0 75 35 75 71 0 58 -87 91
-125 49z"/>
</g>
</svg>
